<svg width="117" height="87" viewBox="0 0 117 87" fill="none" xmlns="http://www.w3.org/2000/svg">
<path d="M101.79 86.9719H5.46706C2.4476 86.9719 0 84.5243 0 81.5048V20.9817C0 17.9623 2.4476 15.5146 5.46706 15.5146H101.79C104.809 15.5146 107.257 17.9623 107.257 20.9817V81.5048C107.257 84.5243 104.809 86.9719 101.79 86.9719Z" fill="#9FB0FE"/>
<path d="M107.259 20.9829V44.0813C103.828 47.0581 99.3508 48.8622 94.4496 48.8622C83.6522 48.8622 74.8994 40.1094 74.8994 29.3147C74.8994 23.9297 77.078 19.0503 80.6016 15.5159H101.792C104.81 15.5159 107.259 17.9624 107.259 20.9829Z" fill="#8399FE"/>
<path d="M107.258 20.9829V27.8742L58.626 65.2333C57.1991 66.3295 55.4251 66.9308 53.6291 66.9308C51.8332 66.9308 50.0591 66.3295 48.6322 65.2333L0 27.8742V20.9829C0 17.9624 2.44924 15.5159 5.46706 15.5159H101.791C104.809 15.5159 107.258 17.9624 107.258 20.9829Z" fill="#8399FE"/>
<path d="M55.2939 41.5883L107.257 81.5046C107.257 84.5241 104.81 86.9717 101.79 86.9717H5.46706C2.4476 86.9717 0 84.5241 0 81.5046L51.9633 41.5883C52.4409 41.2214 53.0263 41.0225 53.6286 41.0225C54.2309 41.0225 54.8163 41.2214 55.2939 41.5883Z" fill="#8399FE"/>
<path d="M85.0501 79.6978H76.2662C75.9037 79.6978 75.5561 79.5538 75.2997 79.2975C75.0434 79.0412 74.8994 78.6936 74.8994 78.3311V72.2752C74.8994 71.9127 75.0434 71.5651 75.2997 71.3088C75.5561 71.0524 75.9037 70.9084 76.2662 70.9084H85.0501C85.4126 70.9084 85.7602 71.0524 86.0166 71.3088C86.2729 71.5651 86.4169 71.9127 86.4169 72.2752V78.3311C86.4169 78.6936 86.2729 79.0412 86.0166 79.2975C85.7602 79.5538 85.4126 79.6978 85.0501 79.6978Z" fill="#02FFB3"/>
<path d="M68.9017 74.1261H61.2935C60.931 74.1261 60.5833 73.9821 60.327 73.7258C60.0707 73.4695 59.9267 73.1218 59.9267 72.7593C59.9267 72.3969 60.0707 72.0492 60.327 71.7929C60.5833 71.5366 60.931 71.3926 61.2935 71.3926H68.9017C69.2642 71.3926 69.6118 71.5366 69.8682 71.7929C70.1245 72.0492 70.2685 72.3969 70.2685 72.7593C70.2685 73.1218 70.1245 73.4695 69.8682 73.7258C69.6118 73.9821 69.2642 74.1261 68.9017 74.1261ZM68.9017 79.6976H42.1588C41.7963 79.6976 41.4486 79.5536 41.1923 79.2973C40.936 79.041 40.792 78.6933 40.792 78.3308C40.792 77.9683 40.936 77.6207 41.1923 77.3644C41.4486 77.1081 41.7963 76.9641 42.1588 76.9641H68.9017C69.2642 76.9641 69.6118 77.1081 69.8682 77.3644C70.1245 77.6207 70.2685 77.9683 70.2685 78.3308C70.2685 78.6933 70.1245 79.041 69.8682 79.2973C69.6118 79.5536 69.2642 79.6976 68.9017 79.6976Z" fill="white"/>
<path d="M101.79 86.9719H5.46706C2.4476 86.9719 0 84.5243 0 81.5048V20.9817C0 17.9623 2.4476 15.5146 5.46706 15.5146H101.79C104.809 15.5146 107.257 17.9623 107.257 20.9817V81.5048C107.257 84.5243 104.809 86.9719 101.79 86.9719Z" fill="#20C48D"/>
<path d="M72.3521 54.6901L58.6271 65.2334C57.2001 66.3295 55.4261 66.9309 53.6302 66.9309C51.8342 66.9309 50.0602 66.3295 48.6333 65.2334L34.9082 54.6901L51.9654 41.5883C52.4428 41.2214 53.0281 41.0225 53.6302 41.0225C54.2323 41.0225 54.8175 41.2214 55.2949 41.5883L72.3521 54.6901Z" fill="white"/>
<path d="M51.9633 60.8984L0 20.9817C0 17.9623 2.4476 15.5146 5.46706 15.5146H101.79C104.809 15.5146 107.257 17.9623 107.257 20.9817L55.2939 60.8984C54.8162 61.2652 54.2308 61.464 53.6286 61.464C53.0264 61.464 52.441 61.2652 51.9633 60.8984Z" fill="#292743"/>
<path d="M97.3102 4.60616C107.15 6.19992 113.835 15.469 112.242 25.3091C110.648 35.1493 101.379 41.8343 91.5387 40.2406C81.6985 38.6468 75.0135 29.3778 76.6073 19.5376C78.201 9.69744 87.4701 3.0124 97.3102 4.60616Z" fill="#20C48D" stroke="white" stroke-width="3"/>
<path d="M85.9146 15.7546L88.7044 22.4214L85.9146 29.0882C85.4409 30.2204 86.5838 31.3549 87.7124 30.8727L104.556 23.6783C105.663 23.2057 105.663 21.6372 104.556 21.1645L87.7124 13.9702C86.5838 13.488 85.4409 14.6224 85.9146 15.7546Z" fill="#292743"/>
<path d="M95.0692 23.6974L86.6704 27.2865L88.7047 22.4209L86.668 17.5552L95.0692 21.1443C96.117 21.5926 96.117 23.2519 95.0692 23.6974Z" fill="white"/>
</svg>
