<svg width="91" height="103" viewBox="0 0 91 103" fill="none" xmlns="http://www.w3.org/2000/svg">
<path d="M87.5098 18.1055H84.4922L35.6676 6.03516C34.4609 2.53477 31.0813 0 27.1582 0H3.01758C1.32753 0 0 1.32753 0 3.01758V81.8769C0 83.5666 1.32753 84.8945 3.01758 84.8945H87.5098C89.1998 84.8945 90.5273 83.5666 90.5273 81.8769V21.123C90.5273 19.433 89.1998 18.1055 87.5098 18.1055Z" fill="#20C48D"/>
<path d="M81.477 6.03516H35.6699C36.0321 7.00058 36.2133 7.96641 36.2133 9.05273V18.1055H84.4946V9.05273C84.4946 7.36269 83.167 6.03516 81.477 6.03516ZM70.7121 92.7008C67.5611 79.586 56.4065 73.0534 45.2562 73.063C34.1058 73.0729 22.9599 79.6252 19.8256 92.6801L18.196 99.2574C18.0853 99.7019 18.0777 100.166 18.1737 100.614C18.2697 101.062 18.4668 101.482 18.75 101.842C19.032 102.203 19.3925 102.494 19.8041 102.695C20.2157 102.896 20.6675 103 21.1254 103H69.4067C70.3349 103 71.2102 102.573 71.7819 101.842C72.065 101.482 72.2621 101.062 72.3581 100.614C72.4541 100.166 72.4465 99.7019 72.3359 99.2574L70.7121 92.7008ZM57.3364 60.7539C57.3364 54.0969 51.923 48.6836 45.266 48.6836C38.6091 48.6836 33.1957 54.0969 33.1957 60.7539C33.1957 67.4109 38.6091 72.8242 45.266 72.8242C51.923 72.8242 57.3364 67.4109 57.3364 60.7539Z" fill="#292743"/>
</svg>
