<svg width="104" height="103" viewBox="0 0 104 103" fill="none" xmlns="http://www.w3.org/2000/svg">
<path d="M103.136 20.1783L83.1341 0.176963C82.8105 0.0604665 82.4692 0.00060309 82.1252 0H31.6796C27.7854 0 24.6172 3.16819 24.6172 7.06239V95.8467C24.6172 99.7409 27.7854 102.909 31.6796 102.909H96.25C100.144 102.909 103.312 99.7409 103.312 95.8467V21.1872C103.312 20.8397 103.249 20.4997 103.136 20.1783Z" fill="#20C48D"/>
<path d="M103.136 20.1783L83.1342 0.176963C82.8105 0.0604665 82.4692 0.00060309 82.1253 0H63.9648V102.909H96.2501C100.144 102.909 103.312 99.7409 103.312 95.8467V21.1872C103.312 20.8397 103.249 20.4997 103.136 20.1783Z" fill="#20C48D"/>
<path d="M1.77306 101.136C4.13715 103.5 7.97001 103.5 10.3339 101.136L37.2654 74.2044L28.7046 65.6436L1.77306 92.5751C-0.591021 94.9392 -0.591021 98.7718 1.77306 101.136Z" fill="#292743"/>
<path d="M1.77344 101.136C4.13752 103.5 7.97038 103.5 10.3343 101.136L37.2658 74.2045L32.9854 69.9241L1.77344 101.136Z" fill="#292743"/>
<path d="M102.427 19.0471L84.2662 0.886671C83.9467 0.568635 83.5601 0.326149 83.1348 0.177002V17.1516C83.1348 18.8231 84.4899 20.1783 86.1615 20.1783H103.136C102.987 19.753 102.745 19.3664 102.427 19.0471Z" fill="#57DDB0"/>
<path d="M70.0187 24.2139H39.7513C38.0798 24.2139 36.7246 22.8587 36.7246 21.1871C36.7246 19.5156 38.0798 18.1604 39.7513 18.1604H70.0187C71.6903 18.1604 73.0455 19.5156 73.0455 21.1871C73.0455 22.8587 71.6903 24.2139 70.0187 24.2139Z" fill="white"/>
<path d="M88.1791 84.7488H72.0365C70.3649 84.7488 69.0098 83.3936 69.0098 81.7221C69.0098 80.0505 70.3649 78.6953 72.0365 78.6953H88.1791C89.8507 78.6953 91.2059 80.0505 91.2059 81.7221C91.2059 83.3936 89.8507 84.7488 88.1791 84.7488Z" fill="white"/>
<path d="M88.1787 36.3208H45.4008C43.7292 36.3208 42.374 34.9656 42.374 33.2941C42.374 31.6225 43.7292 30.2673 45.4008 30.2673H88.1787C89.8502 30.2673 91.2054 31.6225 91.2054 33.2941C91.2054 34.9656 89.8502 36.3208 88.1787 36.3208ZM88.1787 48.4278H45.4008C43.7292 48.4278 42.374 47.0726 42.374 45.401C42.374 43.7295 43.7292 42.3743 45.4008 42.3743H88.1787C89.8502 42.3743 91.2054 43.7295 91.2054 45.401C91.2054 47.0726 89.8502 48.4278 88.1787 48.4278Z" fill="white"/>
<path d="M91.2055 45.401C91.2055 43.7294 89.8503 42.3743 88.1788 42.3743H63.9648V48.4277H88.1788C89.8503 48.4277 91.2055 47.0726 91.2055 45.401Z" fill="white"/>
<path d="M88.1787 60.5347H45.4008C43.7292 60.5347 42.374 59.1795 42.374 57.5079C42.374 55.8364 43.7292 54.4812 45.4008 54.4812H88.1787C89.8502 54.4812 91.2054 55.8364 91.2054 57.5079C91.2054 59.1795 89.8502 60.5347 88.1787 60.5347Z" fill="#B7B4E7"/>
<path d="M88.1788 60.5347C89.8503 60.5347 91.2055 59.1795 91.2055 57.5079C91.2055 55.8364 89.8503 54.4812 88.1788 54.4812H63.9648V60.5347H88.1788Z" fill="white"/>
<path d="M88.1787 72.6419H45.4008C43.7292 72.6419 42.374 71.2867 42.374 69.6151C42.374 67.9436 43.7292 66.5884 45.4008 66.5884H88.1787C89.8502 66.5884 91.2054 67.9436 91.2054 69.6151C91.2054 71.2867 89.8502 72.6419 88.1787 72.6419Z" fill="#B7B4E7"/>
<path d="M88.1788 72.6419C89.8503 72.6419 91.2055 71.2867 91.2055 69.6151C91.2055 67.9436 89.8503 66.5884 88.1788 66.5884H63.9648V72.6419H88.1788Z" fill="white"/>
<path d="M45.4014 81.722C58.7744 81.722 69.6153 70.8811 69.6153 57.5081C69.6153 44.1351 58.7744 33.2942 45.4014 33.2942C32.0284 33.2942 21.1875 44.1351 21.1875 57.5081C21.1875 70.8811 32.0284 81.722 45.4014 81.722Z" fill="white"/>
<path d="M62.5137 40.3943L28.2861 74.6219C32.6707 79.0064 38.7241 81.722 45.3999 81.722C58.7517 81.722 69.6138 70.8596 69.6138 57.5081C69.6138 50.8323 66.8982 44.7788 62.5137 40.3943Z" fill="white"/>
<path d="M49.4376 62.5525H41.3663C33.9467 62.5525 27.6749 67.865 26.4531 75.1845L34.0327 79.8951L41.6122 83.9257H49.1918L56.7714 79.8951L64.3509 75.1845C63.1291 67.865 56.8573 62.5525 49.4376 62.5525Z" fill="#20C48D"/>
<path d="M45.398 66.5882C38.7222 66.5882 33.291 61.157 33.291 54.4812C33.291 47.8054 38.7222 42.3743 45.398 42.3743C52.0737 42.3743 57.5049 47.8054 57.5049 54.4812C57.5049 61.157 52.0737 66.5882 45.398 66.5882Z" fill="#20C48D"/>
<path d="M45.4008 84.7486C30.3803 84.7486 18.1602 72.5285 18.1602 57.508C18.1602 42.4875 30.3803 30.2673 45.4008 30.2673C60.4213 30.2673 72.6415 42.4875 72.6415 57.508C72.6415 72.5285 60.4213 84.7486 45.4008 84.7486ZM45.4008 36.3208C33.7182 36.3208 24.2136 45.8254 24.2136 57.508C24.2136 69.1906 33.7182 78.6952 45.4008 78.6952C57.0834 78.6952 66.588 69.1906 66.588 57.508C66.588 45.8254 57.0834 36.3208 45.4008 36.3208Z" fill="#292743"/>
<path d="M64.6554 38.2551L60.377 42.5335C64.2133 46.37 66.5895 51.6668 66.5895 57.5082C66.5895 69.1908 57.0849 78.6954 45.4023 78.6954C39.5611 78.6954 34.2643 76.3192 30.4278 72.4827L26.1494 76.7611C31.0818 81.6939 37.892 84.7489 45.4023 84.7489C60.4228 84.7489 72.643 72.5287 72.643 57.5082C72.643 49.9979 69.588 43.1877 64.6554 38.2551Z" fill="#292743"/>
<path d="M73.047 21.1869C73.047 19.5153 71.6918 18.1602 70.0203 18.1602H63.9668V24.2136H70.0203C71.6918 24.2136 73.047 22.8585 73.047 21.1869ZM91.2074 33.2939C91.2074 31.6223 89.8523 30.2671 88.1807 30.2671H63.9668V36.3206H88.1807C89.8523 36.3206 91.2074 34.9654 91.2074 33.2939Z" fill="white"/>
</svg>
