<svg width="103" height="103" viewBox="0 0 103 103" fill="none" xmlns="http://www.w3.org/2000/svg">
<path d="M100.465 42.5076L89.1594 40.6367C88.3748 37.8 87.2281 35.1445 85.84 32.5494L92.3582 23.3758C93.2029 22.1689 93.0824 20.5394 92.0562 19.5135L83.4863 10.9435C82.4605 9.91777 80.8309 9.79687 79.6238 10.6418L70.4504 17.16C67.8553 15.7717 65.1998 14.6254 62.3631 13.8406L60.4922 2.53456C60.251 1.08633 58.9836 0 57.5352 0H45.4648C44.0164 0 42.749 1.08633 42.5076 2.53456L40.6367 13.8406C37.8 14.6252 35.1445 15.7715 32.5494 17.16L23.3762 10.6418C22.1691 9.79687 20.5394 9.91757 19.5137 10.9435L10.944 19.5137C9.91777 20.5394 9.79727 22.1691 10.642 23.376L17.16 32.5496C15.7721 35.1447 14.6254 37.8002 13.8406 40.6369L2.53456 42.5078C1.08633 42.749 0 44.0164 0 45.4648V57.5352C0 58.9836 1.08633 60.251 2.53456 60.4924L13.8406 62.3633C14.6252 65.1996 15.7719 67.8551 17.16 70.4506L10.6418 79.6238C9.79707 80.8309 9.91757 82.4605 10.9437 83.4863L19.5137 92.056C20.5394 93.0822 22.1691 93.2027 23.3762 92.3578L32.5496 85.84C35.1447 87.2279 37.8002 88.3746 40.6369 89.1594L42.5078 100.465C42.749 101.914 44.0164 103 45.4648 103H57.5352C58.9836 103 60.251 101.914 60.4924 100.465L62.3633 89.1594C65.2 88.3748 67.8555 87.2281 70.4506 85.84L79.6238 92.3578C80.8309 93.2027 82.4605 93.0824 83.4863 92.056L92.056 83.4863C93.0822 82.4605 93.2027 80.8309 92.358 79.6238L85.84 70.4504C87.2279 67.8549 88.3746 65.1994 89.1594 62.3631L100.465 60.4922C101.914 60.251 103 58.9836 103 57.5352V45.4648C103 44.0164 101.914 42.749 100.465 42.5076ZM51.5 72.623C39.8521 72.623 30.377 63.1479 30.377 51.5C30.377 39.8521 39.8521 30.377 51.5 30.377C63.1479 30.377 72.623 39.8521 72.623 51.5C72.623 63.1479 63.1479 72.623 51.5 72.623Z" fill="#20C48D"/>
<path d="M103 45.4648V57.5352C103 58.9836 101.914 60.251 100.465 60.4924L89.1594 62.3633C88.3748 65.1996 87.2281 67.8551 85.84 70.4506L92.3582 79.6238C93.2029 80.8309 93.0824 82.4606 92.0563 83.4863L83.4863 92.056C82.4606 93.0822 80.8309 93.2027 79.6238 92.3578L70.4504 85.84C67.8553 87.2279 65.1998 88.3746 62.3631 89.1594L60.4922 100.465C60.251 101.914 58.9836 103 57.5352 103H51.5V72.623C63.1479 72.623 72.623 63.1479 72.623 51.5C72.623 39.8521 63.1479 30.377 51.5 30.377V0H57.5352C58.9836 0 60.251 1.08633 60.4924 2.53456L62.3633 13.8406C65.2 14.6252 67.8555 15.7715 70.4506 17.16L79.6238 10.6418C80.8309 9.79687 82.4606 9.91757 83.4863 10.9435L92.056 19.5137C93.0822 20.5394 93.2027 22.1691 92.358 23.376L85.84 32.5496C87.2279 35.1447 88.3746 37.8002 89.1594 40.6369L100.465 42.5078C101.914 42.749 103 44.0164 103 45.4648Z" fill="#20C48D"/>
<path d="M51.499 24.3418C36.4999 24.3418 24.3408 36.5008 24.3408 51.5C24.3408 66.4992 36.4999 78.6582 51.499 78.6582C66.4982 78.6582 78.6572 66.4992 78.6572 51.5C78.6572 36.5008 66.4982 24.3418 51.499 24.3418ZM51.499 60.5527C46.5071 60.5527 42.4463 56.4919 42.4463 51.5C42.4463 46.5081 46.5071 42.4473 51.499 42.4473C56.4909 42.4473 60.5518 46.5081 60.5518 51.5C60.5518 56.4919 56.4909 60.5527 51.499 60.5527Z" fill="#292743"/>
<path d="M60.5527 51.5C60.5527 56.4919 56.4919 60.5527 51.5 60.5527V78.6582C66.4992 78.6582 78.6582 66.4992 78.6582 51.5C78.6582 36.5008 66.4992 24.3418 51.5 24.3418V42.4473C56.4919 42.4473 60.5527 46.5081 60.5527 51.5Z" fill="#292743"/>
</svg>
