<svg width="103" height="103" viewBox="0 0 103 103" fill="none" xmlns="http://www.w3.org/2000/svg">
<path d="M51.5 103C79.9427 103 103 79.9427 103 51.5C103 23.0573 79.9427 0 51.5 0C23.0573 0 0 23.0573 0 51.5C0 79.9427 23.0573 103 51.5 103Z" fill="#20C48D"/>
<path d="M66.5879 33.3945C66.5879 25.0751 59.8195 18.3066 51.5 18.3066C43.1805 18.3066 36.4121 25.0751 36.4121 33.3945C36.4121 41.714 43.1805 48.4824 51.5 48.4824C59.8195 48.4824 66.5879 41.714 66.5879 33.3945ZM51.5 48.4824C36.525 48.4824 24.3418 60.6656 24.3418 75.6406V78.4687C24.3418 79.3265 24.7067 80.1437 25.3456 80.716C32.6961 87.3024 41.9846 90.9297 51.5 90.9297C61.0156 90.9297 70.3041 87.3024 77.6544 80.716C77.9702 80.433 78.2229 80.0866 78.3959 79.6994C78.5688 79.3121 78.6582 78.8928 78.6582 78.4687V75.6406C78.6582 60.6656 66.475 48.4824 51.5 48.4824Z" fill="#292743"/>
</svg>
