<svg width="45" height="45" viewBox="0 0 45 45" fill="none" xmlns="http://www.w3.org/2000/svg">
<circle cx="22.5" cy="22.5" r="22.5" fill="#20C48D"/>
<g clip-path="url(#clip0_100_3377)">
<path d="M32.6653 14.2497C30.8855 12.4699 27.9896 12.4699 26.2099 14.2497L15.4509 25.0086C14.9336 25.5259 14.6487 26.2137 14.6487 26.9452C14.6487 27.6768 14.9336 28.3646 15.4509 28.8819C16.5187 29.9498 18.2563 29.9498 19.3242 28.8819L27.9313 20.2747L26.6402 18.9837L18.0331 27.5907C17.6771 27.9466 17.098 27.9468 16.742 27.5907C16.6569 27.5062 16.5895 27.4056 16.5436 27.2948C16.4977 27.184 16.4742 27.0652 16.4745 26.9452C16.4742 26.8253 16.4977 26.7065 16.5436 26.5957C16.5895 26.4849 16.657 26.3842 16.742 26.2997L27.5009 15.5407C28.5689 14.4729 30.3063 14.4729 31.3742 15.5407C32.4421 16.6086 32.4421 18.3461 31.3742 19.414L20.6152 30.1729C18.8355 31.9526 15.9397 31.9527 14.1598 30.1729C12.3801 28.3932 12.3801 25.4973 14.1598 23.7176L24.9188 12.9585L23.6277 11.6675L12.8687 22.4265C10.3771 24.9181 10.3771 28.9724 12.8687 31.464C14.1146 32.7098 15.751 33.3328 17.3875 33.3328C19.024 33.3328 20.6605 32.7098 21.9062 31.464L32.6653 20.705C34.445 18.9253 34.445 16.0294 32.6653 14.2497Z" fill="white"/>
</g>
<defs>
<clipPath id="clip0_100_3377">
<rect width="23" height="23" fill="white" transform="translate(11 11)"/>
</clipPath>
</defs>
</svg>
