<svg width="23" height="23" viewBox="0 0 23 23" fill="none" xmlns="http://www.w3.org/2000/svg">
<path d="M21.6653 3.24969C19.8855 1.46992 16.9896 1.46992 15.2099 3.24969L4.45094 14.0086C3.93362 14.5259 3.64873 15.2137 3.64868 15.9452C3.64868 16.6768 3.93358 17.3646 4.4509 17.8819C5.51874 18.9498 7.25633 18.9498 8.32417 17.8819L16.9313 9.27473L15.6402 7.98367L7.03306 16.5907C6.67715 16.9466 6.09797 16.9468 5.74196 16.5907C5.65692 16.5062 5.5895 16.4056 5.5436 16.2948C5.4977 16.184 5.47422 16.0652 5.47454 15.9452C5.47422 15.8253 5.4977 15.7065 5.54361 15.5957C5.58952 15.4849 5.65695 15.3842 5.742 15.2997L16.5009 4.54075C17.5689 3.47291 19.3063 3.47291 20.3742 4.54075C21.4421 5.60859 21.4421 7.34613 20.3742 8.41402L9.61518 19.1729C7.83546 20.9526 4.93965 20.9527 3.15979 19.1729C1.38007 17.3932 1.38007 14.4973 3.15979 12.7176L13.9188 1.95854L12.6277 0.66748L1.86873 11.4265C-0.622912 13.9181 -0.622912 17.9724 1.86873 20.464C3.11456 21.7098 4.75102 22.3328 6.38753 22.3328C8.024 22.3328 9.66046 21.7098 10.9062 20.464L21.6653 9.70499C23.445 7.92527 23.445 5.02941 21.6653 3.24969Z" fill="white"/>
</svg>
