<svg width="114" height="148" viewBox="0 0 114 148" fill="none" xmlns="http://www.w3.org/2000/svg">
<path d="M102.2 0H75.5666C69.3546 0 64.3013 5.05336 64.3013 11.2641V37.8985C64.3013 44.1095 69.3546 49.1629 75.5666 49.1629H102.2C108.411 49.1629 113.464 44.1095 113.464 37.8985V11.2641C113.465 5.05336 108.411 0 102.2 0ZM104.843 37.8988C104.843 39.3548 103.657 40.5401 102.2 40.5401H75.5666C74.1094 40.5401 72.9249 39.3548 72.9249 37.8988V11.2639C72.9249 9.8078 74.1091 8.62221 75.5666 8.62221H102.2C103.657 8.62221 104.843 9.8078 104.843 11.2639V37.8988Z" fill="#282642"/>
<path d="M81.5683 59.9264C79.4989 59.9264 77.5488 60.4394 75.8366 61.3456C73.6307 58.0403 69.8684 55.86 65.6054 55.86C63.4809 55.8572 61.3924 56.4086 59.5461 57.4598C57.3063 54.4183 53.7012 52.4412 49.6426 52.4412C48.3648 52.4412 47.132 52.6366 45.9723 53.0002V49.1629H46.9964C53.2083 49.1629 58.2617 44.1095 58.2617 37.8973V11.2641C58.2617 5.05336 53.2083 0 46.9964 0H20.3632C14.1521 0 9.09877 5.05336 9.09877 11.2641V37.8985C9.09877 44.1095 14.1521 49.1629 20.3632 49.1629H21.3881V75.8702C20.713 75.1945 19.9622 74.5989 19.1506 74.0951C16.502 72.4502 13.3965 71.8777 10.3519 72.4638C7.07679 72.5951 4.13854 74.0244 2.23009 76.4301C0.224784 78.9576 -0.471339 82.346 0.317907 85.7277L5.98432 109.975C9.21546 130.205 24.9969 145.341 25.6695 145.977C26.4701 146.735 27.5305 147.157 28.6328 147.157H77.1231C78.5745 147.157 79.9277 146.426 80.7259 145.214C89.3139 132.15 93.855 116.982 93.8562 101.349L93.8605 72.2192V72.218C93.8605 65.4402 88.3459 59.9264 81.5677 59.9264H81.5683ZM30.444 138.535C26.9692 134.839 16.73 122.904 14.4766 108.482C14.4601 108.376 14.4395 108.271 14.4148 108.166L8.71363 83.7661C8.52394 82.951 8.61936 82.2486 8.98438 81.789C9.34796 81.33 9.97223 81.0897 10.8055 81.0101C11.2242 80.9707 11.3981 80.921 11.7867 80.8977C12.7645 80.8382 13.767 80.902 14.6002 81.4197C15.4334 81.9373 16.0137 82.7478 16.237 83.7023L21.1547 104.749C21.3554 105.607 21.8139 106.382 22.4686 106.972C23.1233 107.561 23.9429 107.936 24.817 108.046L25.1628 108.089C25.7694 108.165 26.3853 108.111 26.9695 107.931C27.5537 107.751 28.0929 107.448 28.5513 107.044C29.0097 106.639 29.3768 106.142 29.6282 105.585C29.8796 105.027 30.0096 104.423 30.0095 103.811V35.2925C30.0095 33.2682 31.6555 31.6222 33.6798 31.6222C35.7029 31.6222 37.3501 33.2682 37.3501 35.2925V75.7205C37.3501 78.1006 39.2798 80.0317 41.6613 80.0317C44.0423 80.0317 45.9726 78.1006 45.9726 75.7205V64.7337C45.9726 62.7094 47.6183 61.0634 49.6426 61.0634C51.6657 61.0634 53.3129 62.7094 53.3129 64.7337V76.2111C53.3129 78.5923 55.2426 80.5223 57.6242 80.5223C60.0051 80.5223 61.9354 78.5923 61.9354 76.2111V68.1522C61.9354 66.1291 63.5823 64.4819 65.6054 64.4819C67.6297 64.4819 69.2758 66.1291 69.2758 68.1522V79.2224C69.2758 81.6025 71.2055 83.5336 73.587 83.5336C75.9685 83.5336 77.8983 81.6025 77.8983 79.2224V72.2192C77.8983 70.1949 79.5452 68.5477 81.5683 68.5477C83.5926 68.5477 85.2386 70.1946 85.2386 72.218L85.234 101.348C85.2328 114.525 81.6154 127.332 74.7533 138.535H30.444ZM17.7213 37.8988V11.2639C17.7213 9.8078 18.9069 8.62221 20.3632 8.62221H46.9964C48.4536 8.62221 49.6392 9.8078 49.6392 11.2639V37.8982C49.6392 39.3545 48.4536 40.5401 46.9964 40.5401H45.9723V35.2913C45.9723 28.5135 40.4576 22.9985 33.6795 22.9985C26.9019 22.9985 21.387 28.5135 21.387 35.2913V40.5401H20.3632C18.9069 40.5401 17.7213 39.3545 17.7213 37.8982V37.8988Z" fill="#22C58E"/>
</svg>
