<svg width="146" height="146" viewBox="0 0 146 146" fill="none" xmlns="http://www.w3.org/2000/svg">
<g clip-path="url(#clip0_94_438)">
<path d="M73 31.3672C81.6618 31.3672 88.6836 24.3454 88.6836 15.6836C88.6836 7.02178 81.6618 0 73 0C64.3382 0 57.3164 7.02178 57.3164 15.6836C57.3164 24.3454 64.3382 31.3672 73 31.3672Z" fill="#22C58E"/>
<path d="M44.7961 118.329C40.369 123.068 34.0716 126.039 27.0898 126.039C20.1081 126.039 13.8107 123.068 9.38364 118.329C3.72443 122.18 0 128.673 0 136.02V141.723C0 144.085 1.91511 146 4.27734 146H49.9023C52.2646 146 54.1797 144.085 54.1797 141.723V136.02C54.1797 128.673 50.4553 122.18 44.7961 118.329ZM136.616 118.329C132.189 123.068 125.892 126.039 118.91 126.039C111.928 126.039 105.631 123.068 101.204 118.329C95.5447 122.18 91.8203 128.673 91.8203 136.02V141.723C91.8203 144.085 93.7354 146 96.0977 146H141.723C144.085 146 146 144.085 146 141.723V136.02C146 128.673 142.276 122.18 136.616 118.329ZM103.432 104.324C104.643 111.776 111.121 117.484 118.91 117.484C127.558 117.484 134.594 110.449 134.594 101.801C134.594 93.1529 127.558 86.1172 118.91 86.1172C112.43 86.1172 106.855 90.0683 104.467 95.6882L85.8195 89.897C85.6139 84.5372 82.1068 80.0112 77.2773 78.2982V59.8828H95.8125C98.1747 59.8828 100.09 57.9677 100.09 55.6055V49.9024C100.09 42.5556 96.3654 36.0632 90.7062 32.2115C86.2792 36.9508 79.9818 39.9219 73 39.9219C66.0182 39.9219 59.7208 36.9508 55.2938 32.2115C49.6346 36.0632 45.9102 42.5556 45.9102 49.9024V55.6055C45.9102 57.9677 47.8253 59.8828 50.1875 59.8828H68.7227V78.2982C63.8932 80.0112 60.3864 84.5369 60.1805 89.897L41.5327 95.6882C39.1454 90.0683 33.5703 86.1172 27.0898 86.1172C18.4419 86.1172 11.4062 93.1529 11.4062 101.801C11.4062 110.449 18.4419 117.484 27.0898 117.484C34.8786 117.484 41.3568 111.776 42.5676 104.324L62.7195 98.0661C65.0615 101.197 68.7982 103.227 73 103.227C77.2018 103.227 80.9385 101.197 83.2805 98.0658L103.432 104.324Z" fill="#22C58E"/>
<mask id="mask0_94_438" style="mask-type:alpha" maskUnits="userSpaceOnUse" x="43" y="60" width="60" height="52">
<rect x="43.2593" y="60.563" width="59.4815" height="50.8296" fill="#D9D9D9"/>
</mask>
<g mask="url(#mask0_94_438)">
<path d="M103.432 104.557C104.643 112.009 111.121 117.717 118.91 117.717C127.558 117.717 134.594 110.682 134.594 102.034C134.594 93.3858 127.558 86.3501 118.91 86.3501C112.43 86.3501 106.855 90.3012 104.467 95.9211L85.8195 90.1299C85.6139 84.7701 82.1068 80.2441 77.2773 78.5311V60.1157H95.8125C98.1747 60.1157 100.09 58.2006 100.09 55.8384V50.1353C100.09 42.7885 96.3654 36.2961 90.7062 32.4445C86.2792 37.1838 79.9818 40.1548 73 40.1548C66.0182 40.1548 70.9382 41.5097 66.5111 36.7704C60.8519 40.622 45.9102 42.7885 45.9102 50.1353V55.8384C45.9102 58.2006 47.8253 60.1157 50.1875 60.1157H68.7227V78.5311C63.8932 80.2441 60.3864 84.7698 60.1805 90.1299L41.5327 95.9211C39.1454 90.3012 33.5703 86.3501 27.0898 86.3501C18.4419 86.3501 11.4062 93.3858 11.4062 102.034C11.4062 110.682 18.4419 117.717 27.0898 117.717C34.8786 117.717 41.3568 112.009 42.5676 104.557L62.7195 98.299C65.0615 101.429 68.7982 103.459 73 103.459C77.2018 103.459 80.9385 101.429 83.2804 98.2987L103.432 104.557Z" fill="#282642"/>
</g>
</g>
<defs>
<clipPath id="clip0_94_438">
<rect width="146" height="146" fill="white"/>
</clipPath>
</defs>
</svg>
