<svg width="45" height="45" viewBox="0 0 45 45" fill="none" xmlns="http://www.w3.org/2000/svg">
<circle cx="22.5" cy="22.5" r="22.5" fill="#20C48D"/>
<path d="M33.5 13.5252L28.0232 8.04846C27.9345 8.01656 27.8411 8.00017 27.7469 8H13.9338C12.8675 8 12 8.86752 12 9.93383V34.2448C12 35.3111 12.8675 36.1787 13.9338 36.1787H31.6146C32.6809 36.1787 33.5484 35.3111 33.5484 34.2448V13.8015C33.5484 13.7063 33.5311 13.6132 33.5 13.5252Z" fill="white"/>
<path d="M33.4983 13.5252L28.0214 8.04846C27.9328 8.01656 27.8394 8.00017 27.7452 8H22.7725V36.1787H31.6128C32.6791 36.1787 33.5467 35.3111 33.5467 34.2448V13.8015C33.5467 13.7063 33.5294 13.6132 33.4983 13.5252Z" fill="white"/>
<path d="M33.305 13.2159L28.3323 8.24315C28.2448 8.15607 28.1389 8.08967 28.0225 8.04883V12.6968C28.0225 13.1545 28.3935 13.5256 28.8512 13.5256H33.4993C33.4585 13.4091 33.3921 13.3033 33.305 13.2159Z" fill="#57DDB0"/>
<path d="M25.0942 14.6039H16.8063C16.3486 14.6039 15.9775 14.2328 15.9775 13.7751C15.9775 13.3174 16.3486 12.9463 16.8063 12.9463H25.0942C25.5519 12.9463 25.9229 13.3174 25.9229 13.7751C25.9229 14.2328 25.5519 14.6039 25.0942 14.6039Z" fill="#20C48D"/>
<path d="M28.579 31.2064H24.1589C23.7012 31.2064 23.3301 30.8353 23.3301 30.3776C23.3301 29.9199 23.7012 29.5488 24.1589 29.5488H28.579C29.0368 29.5488 29.4078 29.9199 29.4078 30.3776C29.4078 30.8353 29.0368 31.2064 28.579 31.2064Z" fill="#20C48D"/>
<path d="M28.5804 17.9457H16.8669C16.4092 17.9457 16.0381 17.5746 16.0381 17.1169C16.0381 16.6592 16.4092 16.2881 16.8669 16.2881H28.5804C29.0381 16.2881 29.4091 16.6592 29.4091 17.1169C29.4091 17.5746 29.0381 17.9457 28.5804 17.9457ZM28.5804 21.2608H16.8669C16.4092 21.2608 16.0381 20.8897 16.0381 20.432C16.0381 19.9743 16.4092 19.6032 16.8669 19.6032H28.5804C29.0381 19.6032 29.4091 19.9743 29.4091 20.432C29.4091 20.8897 29.0381 21.2608 28.5804 21.2608Z" fill="#20C48D"/>
<path d="M29.4073 20.4313C29.4073 19.9736 29.0362 19.6025 28.5785 19.6025H21.9482V21.2601H28.5785C29.0362 21.2601 29.4073 20.889 29.4073 20.4313Z" fill="#20C48D"/>
<path d="M28.5804 24.5755H16.8669C16.4092 24.5755 16.0381 24.2045 16.0381 23.7468C16.0381 23.289 16.4092 22.918 16.8669 22.918H28.5804C29.0381 22.918 29.4091 23.289 29.4091 23.7468C29.4091 24.2045 29.0381 24.5755 28.5804 24.5755Z" fill="#20C48D"/>
<path d="M28.5785 24.5755C29.0362 24.5755 29.4073 24.2045 29.4073 23.7468C29.4073 23.289 29.0362 22.918 28.5785 22.918H21.9482V24.5755H28.5785Z" fill="#20C48D"/>
<path d="M28.5804 27.891H16.8669C16.4092 27.891 16.0381 27.5199 16.0381 27.0622C16.0381 26.6045 16.4092 26.2334 16.8669 26.2334H28.5804C29.0381 26.2334 29.4091 26.6045 29.4091 27.0622C29.4091 27.5199 29.0381 27.891 28.5804 27.891Z" fill="#20C48D"/>
<path d="M28.5785 27.891C29.0362 27.891 29.4073 27.5199 29.4073 27.0622C29.4073 26.6045 29.0362 26.2334 28.5785 26.2334H21.9482V27.891H28.5785Z" fill="#20C48D"/>
<path d="M24.4356 13.8014C24.4356 13.3437 24.0645 12.9727 23.6068 12.9727H21.9492V14.6302H23.6068C24.0645 14.6302 24.4356 14.2592 24.4356 13.8014ZM29.4083 17.1166C29.4083 16.6589 29.0372 16.2878 28.5795 16.2878H21.9492V17.9454H28.5795C29.0372 17.9454 29.4083 17.5743 29.4083 17.1166Z" fill="#20C48D"/>
</svg>
