<svg width="92" height="99" viewBox="0 0 92 99" fill="none" xmlns="http://www.w3.org/2000/svg">
<path d="M87.8199 98.1151H3.20842C1.43745 98.1151 0 96.6776 0 94.9066C0 84.463 0.304529 69.7874 2.92837 62.9391C6.8283 52.7563 23.6696 46.2981 25.5769 45.5959C27.1526 45.0191 28.9015 45.7451 29.6 47.266C29.7009 47.4832 38.5733 66.7212 45.4735 77.7157C52.3768 66.7214 61.244 47.4855 61.3433 47.266C62.0419 45.7451 63.7952 45.0191 65.3664 45.5959C67.275 46.2981 84.118 52.7563 88.0179 62.9429C90.4651 69.3229 90.3474 76.1727 90.2448 82.2177C90.2234 83.3369 90.2066 84.4248 90.2066 85.4659C90.2066 87.2382 88.7691 88.6756 86.996 88.6756C85.2235 88.6756 83.7876 87.2382 83.7876 85.4659C83.7876 84.388 83.8091 83.2619 83.8258 82.1045C83.9198 76.6455 84.0263 70.4582 82.0258 65.2371C79.9916 59.9342 71.2668 55.1254 65.8668 52.734C62.6225 59.602 54.0714 77.2275 48.047 85.3595C47.7488 85.7623 47.3603 86.0896 46.9127 86.3151C46.4652 86.5406 45.971 86.658 45.4698 86.658C44.9686 86.658 44.4744 86.5406 44.0269 86.3151C43.5793 86.0896 43.1908 85.7623 42.8926 85.3595C36.8735 77.2261 28.3179 59.6022 25.0713 52.734C19.6739 55.1254 10.9493 59.9342 8.91986 65.2371C7.37763 69.2602 6.54238 78.154 6.43055 91.6982H87.8214C89.5946 91.6982 91.032 93.1341 91.032 94.9066C91.032 96.6792 89.593 98.1151 87.8199 98.1151Z" fill="white"/>
<path d="M45.4738 86.6601C43.7004 86.6601 42.2651 85.2226 42.2651 83.4493V62.071C42.2651 60.2978 43.7026 58.8604 45.4736 58.8604C47.2445 58.8604 48.682 60.2978 48.682 62.071V83.4495C48.682 85.2212 47.2461 86.6603 45.4736 86.6603L45.4738 86.6601ZM74.6611 80.6776H64.727C62.9545 80.6776 61.5186 79.2403 61.5186 77.4678C61.5186 75.6947 62.9545 74.2596 64.727 74.2596H74.6611C76.4345 74.2596 77.8719 75.6947 77.8719 77.4678C77.8719 79.2403 76.4345 80.6776 74.6611 80.6776Z" fill="white"/>
<circle cx="45.4346" cy="22.7173" r="19.2173" stroke="white" stroke-width="7"/>
</svg>
