<svg width="149" height="147" viewBox="0 0 149 147" fill="none" xmlns="http://www.w3.org/2000/svg">
<path d="M62.8037 46.2782L74.0379 40.3721L85.2721 46.2782C85.8548 46.5846 86.5115 46.7218 87.1681 46.6744C87.8247 46.627 88.4549 46.3968 88.9875 46.0099C89.5201 45.623 89.9338 45.0948 90.1818 44.485C90.4299 43.8753 90.5024 43.2083 90.3912 42.5595L88.245 30.0496L97.3342 21.1903C97.8056 20.7308 98.139 20.1486 98.2968 19.5095C98.4545 18.8704 98.4303 18.1999 98.2269 17.5739C98.0235 16.9478 97.649 16.3912 97.1458 15.9668C96.6425 15.5425 96.0306 15.2675 95.3792 15.1728L82.8187 13.3476L77.2016 1.96671C76.9103 1.37636 76.4596 0.879308 75.9005 0.531751C75.3414 0.184193 74.6962 0 74.0379 0C73.3796 0 72.7344 0.184193 72.1753 0.531751C71.6162 0.879308 71.1655 1.37636 70.8742 1.96671L65.2571 13.3476L52.6967 15.1728C52.0452 15.2675 51.4333 15.5425 50.9301 15.9668C50.4268 16.3912 50.0523 16.9478 49.8489 17.5739C49.6455 18.1999 49.6213 18.8704 49.7791 19.5095C49.9368 20.1486 50.2702 20.7308 50.7416 21.1903L59.8302 30.0496L57.684 42.5595C57.5728 43.2083 57.6453 43.8753 57.8934 44.485C58.1414 45.0948 58.5552 45.623 59.0877 46.0099C59.6203 46.3968 60.2505 46.627 60.9071 46.6744C61.5637 46.7218 62.2204 46.5846 62.8031 46.2782H62.8037ZM146.665 52.3848L136.511 44.7703L137.027 32.0882C137.054 31.4303 136.896 30.778 136.571 30.2051C136.247 29.6322 135.768 29.1616 135.19 28.8465C134.612 28.5315 133.957 28.3845 133.3 28.4222C132.642 28.4599 132.009 28.6808 131.47 29.06L121.092 36.3644L109.19 31.9544C108.572 31.7258 107.903 31.6744 107.259 31.806C106.614 31.9377 106.018 32.2471 105.54 32.6994C105.062 33.1517 104.72 33.7288 104.552 34.3654C104.385 35.002 104.399 35.6727 104.593 36.3017L108.332 48.4309L100.461 58.3877C100.052 58.9041 99.7967 59.5244 99.7226 60.1785C99.6484 60.8326 99.7588 61.4944 100.041 62.0891C100.324 62.6837 100.767 63.1875 101.32 63.5435C101.874 63.8994 102.517 64.0933 103.175 64.1033L115.865 64.2947L122.903 74.858C123.225 75.3414 123.661 75.7378 124.173 76.012C124.685 76.2863 125.257 76.4298 125.838 76.43C125.99 76.4298 126.142 76.42 126.293 76.4006C126.946 76.3158 127.562 76.05 128.072 75.6333C128.581 75.2167 128.964 74.6657 129.177 74.0427L133.281 62.0321L145.501 58.6038C146.135 58.4259 146.707 58.0743 147.151 57.5887C147.596 57.1031 147.895 56.5028 148.016 55.8558C148.137 55.2088 148.075 54.5408 147.836 53.9273C147.597 53.3139 147.192 52.7798 146.665 52.3848ZM44.901 64.1036C45.5593 64.0936 46.2016 63.8997 46.7553 63.5438C47.3091 63.1878 47.7522 62.684 48.0346 62.0894C48.317 61.4947 48.4274 60.8329 48.3533 60.1788C48.2791 59.5247 48.0235 58.9044 47.6152 58.388L39.7438 48.4312L43.4831 36.302C43.677 35.673 43.6911 35.0022 43.5237 34.3655C43.3563 33.7289 43.0141 33.1518 42.5359 32.6995C42.0576 32.2472 41.4624 31.9377 40.8174 31.806C40.1724 31.6743 39.5034 31.7257 38.8862 31.9544L26.9843 36.3644L16.6062 29.06C16.0679 28.6808 15.4342 28.4599 14.7768 28.4222C14.1194 28.3845 13.4646 28.5315 12.8865 28.8465C12.3083 29.1616 11.8298 29.6322 11.5052 30.2051C11.1806 30.778 11.0228 31.4303 11.0496 32.0882L11.5656 44.7703L1.41125 52.3848C0.884634 52.7798 0.479012 53.3142 0.240251 53.9276C0.00149108 54.5411 -0.060884 55.2091 0.060179 55.8561C0.181242 56.5031 0.480914 57.1034 0.925311 57.589C1.36971 58.0746 1.94111 58.4262 2.57489 58.6041L14.7955 62.0324L18.8988 74.043C19.1116 74.6659 19.4945 75.2169 20.0042 75.6335C20.5138 76.0502 21.1298 76.316 21.7826 76.4008C22.4354 76.4856 23.0989 76.3861 23.6981 76.1135C24.2973 75.8409 24.8083 75.4061 25.1733 74.8583L32.2104 64.295L44.901 64.1036ZM117.549 101.073C119.114 101.073 120.634 100.553 121.871 99.5953C123.108 98.6374 123.992 97.2958 124.383 95.7812C123.992 94.2665 123.108 92.9249 121.871 91.967C120.634 91.0091 119.114 90.4893 117.549 90.4892H91.6777V74.3194C91.6777 69.9206 91.6777 61.151 80.1378 60.0311C79.8116 60.0005 79.4827 60.0383 79.172 60.1422C78.8613 60.2461 78.5758 60.4137 78.3336 60.6344C78.0915 60.855 77.8981 61.1238 77.7659 61.4235C77.6337 61.7233 77.5656 62.0473 77.5659 62.3749V78.3577C77.5658 78.7929 77.445 79.2195 77.2169 79.5902L70.5099 90.4892H70.8039L61.102 96.8251V142.147C62.5312 142.975 64.1541 143.411 65.806 143.409H112.846C114.41 143.409 115.93 142.889 117.167 141.931C118.404 140.973 119.288 139.631 119.679 138.117C119.288 136.602 118.404 135.26 117.167 134.303C115.93 133.345 114.41 132.825 112.846 132.825H105.79V129.297H115.197C116.762 129.297 118.282 128.777 119.519 127.819C120.756 126.861 121.64 125.52 122.031 124.005C121.64 122.49 120.756 121.149 119.519 120.191C118.282 119.233 116.762 118.713 115.197 118.713H105.79V115.185H117.549C119.114 115.185 120.634 114.665 121.871 113.707C123.108 112.749 123.992 111.408 124.383 109.893C123.992 108.378 123.108 107.037 121.871 106.079C120.634 105.121 119.114 104.601 117.549 104.601H105.79V101.073H117.549ZM54.0461 90.4892H30.5264C29.5907 90.4892 28.6933 90.8609 28.0317 91.5225C27.3701 92.1841 26.9984 93.0815 26.9984 94.0172V143.409C26.9984 144.344 27.3701 145.242 28.0317 145.903C28.6933 146.565 29.5907 146.937 30.5264 146.937H54.0461C54.9818 146.937 55.8791 146.565 56.5408 145.903C57.2024 145.242 57.5741 144.344 57.5741 143.409V94.0172C57.5741 93.0815 57.2024 92.1841 56.5408 91.5225C55.8791 90.8609 54.9818 90.4892 54.0461 90.4892ZM42.2862 141.351C41.5885 141.351 40.9064 141.144 40.3262 140.756C39.746 140.368 39.2938 139.817 39.0268 139.173C38.7598 138.528 38.6899 137.819 38.8261 137.134C38.9622 136.45 39.2982 135.821 39.7916 135.328C40.285 134.835 40.9136 134.499 41.598 134.363C42.2823 134.226 42.9917 134.296 43.6363 134.563C44.281 134.83 44.832 135.283 45.2196 135.863C45.6073 136.443 45.8142 137.125 45.8142 137.823C45.8142 138.758 45.4425 139.656 44.7809 140.317C44.1193 140.979 43.2219 141.351 42.2862 141.351Z" fill="#24C68F"/>
<path d="M117.078 101.136C118.643 101.136 120.163 100.617 121.4 99.6586C122.637 98.7008 123.52 97.3591 123.912 95.8445C123.52 94.3298 122.637 92.9882 121.4 92.0303C120.163 91.0725 118.643 90.5527 117.078 90.5525H91.2066V74.3827C91.2066 69.9839 91.2066 61.2143 79.6666 60.0945C79.3405 60.0638 79.0116 60.1017 78.7009 60.2056C78.3902 60.3094 78.1047 60.4771 77.8625 60.6977C77.6204 60.9184 77.427 61.1872 77.2948 61.4869C77.1626 61.7866 77.0945 62.1106 77.0948 62.4382V78.421C77.0947 78.8562 76.9739 79.2829 76.7458 79.6535L70.0388 90.5525H70.3328L60.6309 96.8885V142.21C62.0601 143.039 63.683 143.474 65.3349 143.472H112.374C113.939 143.472 115.459 142.952 116.696 141.994C117.933 141.036 118.816 139.695 119.208 138.18C118.816 136.665 117.933 135.324 116.696 134.366C115.459 133.408 113.939 132.888 112.374 132.888H105.318V129.36H114.726C116.291 129.36 117.811 128.84 119.048 127.882C120.285 126.924 121.168 125.583 121.56 124.068C121.168 122.554 120.285 121.212 119.048 120.254C117.811 119.296 116.291 118.776 114.726 118.776H105.318V115.248H117.078C118.643 115.248 120.163 114.728 121.4 113.77C122.637 112.813 123.52 111.471 123.912 109.956C123.52 108.442 122.637 107.1 121.4 106.142C120.163 105.184 118.643 104.665 117.078 104.664H105.318V101.136H117.078ZM53.575 90.5525H30.0552C29.1196 90.5525 28.2222 90.9242 27.5606 91.5859C26.899 92.2475 26.5273 93.1448 26.5273 94.0805V143.472C26.5273 144.408 26.899 145.305 27.5606 145.967C28.2222 146.628 29.1196 147 30.0552 147H53.575C54.5107 147 55.408 146.628 56.0696 145.967C56.7313 145.305 57.103 144.408 57.103 143.472V94.0805C57.103 93.1448 56.7313 92.2475 56.0696 91.5859C55.408 90.9242 54.5107 90.5525 53.575 90.5525ZM41.8151 141.414C41.1174 141.414 40.4353 141.207 39.8551 140.819C39.2749 140.432 38.8227 139.881 38.5557 139.236C38.2887 138.591 38.2188 137.882 38.3549 137.198C38.4911 136.513 38.8271 135.885 39.3205 135.391C39.8139 134.898 40.4425 134.562 41.1269 134.426C41.8112 134.29 42.5206 134.36 43.1652 134.627C43.8099 134.894 44.3609 135.346 44.7485 135.926C45.1362 136.506 45.3431 137.188 45.3431 137.886C45.3431 138.822 44.9714 139.719 44.3098 140.381C43.6481 141.042 42.7508 141.414 41.8151 141.414Z" fill="#292541"/>
</svg>
