<svg width="45" height="45" viewBox="0 0 45 45" fill="none" xmlns="http://www.w3.org/2000/svg">
<circle cx="22.5" cy="22.5" r="22.5" fill="#20C48D"/>
<path d="M34.8844 31.2012H9.61444C9.09844 31.2012 8.68018 30.7829 8.68018 30.2669V14.3889C8.68018 13.8729 9.09844 13.4546 9.61444 13.4546H34.8844C35.4004 13.4546 35.8187 13.8729 35.8187 14.3889V30.2669C35.8187 30.7829 35.4004 31.2012 34.8844 31.2012Z" fill="#9FB0FE" stroke="black"/>
<path d="M30.4936 29.7927H28.1891C28.094 29.7927 28.0028 29.7549 27.9356 29.6877C27.8683 29.6204 27.8306 29.5292 27.8306 29.4341V27.8454C27.8306 27.7503 27.8683 27.6591 27.9356 27.5918C28.0028 27.5246 28.094 27.4868 28.1891 27.4868H30.4936C30.5887 27.4868 30.6799 27.5246 30.7471 27.5918C30.8144 27.6591 30.8521 27.7503 30.8521 27.8454V29.4341C30.8521 29.5292 30.8144 29.6204 30.7471 29.6877C30.6799 29.7549 30.5887 29.7927 30.4936 29.7927Z" fill="#02FFB3"/>
<path d="M36.32 14.3893V20.4491C35.42 21.2301 34.2453 21.7034 32.9595 21.7034C30.1268 21.7034 27.8306 19.4071 27.8306 16.5752C27.8306 15.1624 28.4021 13.8823 29.3265 12.9551H34.8857C35.6774 12.9551 36.32 13.5969 36.32 14.3893Z" fill="#8399FE"/>
<path d="M34.8844 31.2012H9.61444C9.09844 31.2012 8.68018 30.7829 8.68018 30.2669V14.3889C8.68018 13.8729 9.09844 13.4546 9.61444 13.4546H34.8844C35.4004 13.4546 35.8187 13.8729 35.8187 14.3889V30.2669C35.8187 30.7829 35.4004 31.2012 34.8844 31.2012Z" fill="white" stroke="#20C48D"/>
<path d="M22.3817 20.1914L22.3818 20.1914L35.7914 30.4922C35.6906 30.8994 35.3228 31.2011 34.8845 31.2011H9.61444C9.17615 31.2011 8.80838 30.8994 8.70754 30.4922L22.1172 20.1914L22.1172 20.1914C22.1551 20.1623 22.2016 20.1465 22.2495 20.1465C22.2973 20.1465 22.3438 20.1623 22.3817 20.1914Z" fill="white" stroke="#20C48D"/>
<path d="M22.1171 24.4643L8.70754 14.1635C8.80837 13.7564 9.17615 13.4546 9.61444 13.4546H34.8844C35.3227 13.4546 35.6905 13.7564 35.7913 14.1635L22.3818 24.4643C22.3818 24.4643 22.3818 24.4643 22.3818 24.4643C22.3438 24.4935 22.2973 24.5093 22.2495 24.5093C22.2016 24.5093 22.1551 24.4935 22.1172 24.4643C22.1172 24.4643 22.1171 24.4643 22.1171 24.4643Z" fill="white" stroke="#20C48D"/>
</svg>
