<svg width="58" height="58" viewBox="0 0 58 58" fill="none" xmlns="http://www.w3.org/2000/svg">
<g clip-path="url(#clip0_119_3131)">
<path d="M55.3051 29L57.7088 24.8745L54.2413 21.5897L55.379 16.9505L51.1238 14.7834L50.9077 10.0155L46.2188 9.12854L44.6783 4.61089L39.9262 5.07387L37.1724 1.17042L32.7441 2.96174L29.0004 0L25.2569 2.96174L20.8287 1.17031L18.0749 5.07375L13.3227 4.61077L11.7822 9.12854L7.09328 10.0154L6.87737 14.7833L2.62207 16.9504L3.75976 21.5896L0.292219 24.8744L2.69571 29L0.291992 33.1255L3.75953 36.4103L2.62185 41.0495L6.87714 43.2166L7.09306 47.9845L11.782 48.8715L13.3225 53.3891L18.0747 52.9261L20.8285 56.8296L25.2567 55.0383L29.0004 58L32.7439 55.0383L37.1721 56.8297L39.9259 52.9262L44.6781 53.3892L46.2186 48.8715L50.9075 47.9845L51.1236 43.2166L55.3788 41.0495L54.2412 36.4103L57.7087 33.1255L55.3051 29ZM29.0004 49.7846C17.5397 49.7846 8.21579 40.4607 8.21579 29C8.21579 17.5393 17.5397 8.21538 29.0004 8.21538C40.4611 8.21538 49.7849 17.5393 49.7849 29C49.7849 40.4607 40.4611 49.7846 29.0004 49.7846Z" fill="#FF82A0"/>
<path d="M29.0005 11.6177C19.4158 11.6177 11.6182 19.4154 11.6182 29C11.6182 38.5846 19.4158 46.3823 29.0005 46.3823C38.5851 46.3823 46.3828 38.5846 46.3828 29C46.3828 19.4154 38.585 11.6177 29.0005 11.6177ZM20.6811 34.7793L17.0558 31.9441L17.7934 35.3963L15.2965 35.9298L13.673 28.3305L15.779 27.8806L19.4043 30.7159L18.6667 27.2636L21.1636 26.7301L22.7871 34.3293L20.6811 34.7793ZM24.5673 33.949L22.9437 26.3498L29.1208 25.0299L29.5337 26.9623L25.8752 27.7439L26.0655 28.6341L29.2788 27.9475L29.673 29.7931L26.4597 30.4796L26.6731 31.4784L30.4728 30.6665L30.8857 32.5988L24.5673 33.949ZM42.2408 30.1728L39.4942 30.7596L37.4 26.9616L36.9756 31.2977L34.229 31.8846L30.1735 24.805L32.8116 24.2414L35.0592 28.2791L35.5365 23.6592L37.8923 23.1559L40.1516 27.2479L40.6171 22.5737L43.0488 22.0541L42.2408 30.1728Z" fill="#FF82A0"/>
</g>
<defs>
<clipPath id="clip0_119_3131">
<rect width="58" height="58" fill="white"/>
</clipPath>
</defs>
</svg>
