<svg width="16" height="19" viewBox="0 0 16 19" fill="none" xmlns="http://www.w3.org/2000/svg">
<path d="M4.19637 18.5056C3.85368 18.7409 3.41616 18.9015 2.93935 18.967C2.46253 19.0325 1.96792 19 1.51829 18.8735C1.06867 18.747 0.684298 18.5323 0.413976 18.2567C0.143654 17.981 -0.000433751 17.6568 1.60363e-06 17.3253V1.67515C-0.00055433 1.34354 0.143446 1.01929 0.413722 0.743573C0.683998 0.467856 1.06836 0.253104 1.51801 0.12658C1.96766 5.53023e-05 2.46232 -0.0325349 2.9392 0.0329466C3.41607 0.098428 3.85365 0.259028 4.19637 0.494357L15.0485 7.92907C15.6579 8.34627 16 8.91105 16 9.49979C16 10.0885 15.6579 10.6533 15.0485 11.0705L4.19637 18.5056Z" fill="#052E75"/>
</svg>
