<svg width="45" height="45" viewBox="0 0 45 45" fill="none" xmlns="http://www.w3.org/2000/svg">
<circle cx="22.5" cy="22.5" r="22.5" fill="#20C48D"/>
<g clip-path="url(#clip0_104_4061)">
<path d="M27.031 12.0897C22.9122 7.97077 16.2084 7.97077 12.0895 12.0897C7.97148 16.2094 7.97148 22.9123 12.0895 27.0321C15.7574 30.6992 21.4701 31.0921 25.5863 28.2286C25.673 28.6384 25.8712 29.0295 26.1899 29.3483L32.1883 35.3467C32.3955 35.5541 32.6415 35.7186 32.9123 35.8309C33.1831 35.9432 33.4734 36.001 33.7665 36.001C34.0597 36.001 34.3499 35.9432 34.6207 35.8309C34.8915 35.7186 35.1376 35.5541 35.3447 35.3467C35.5523 35.1396 35.7171 34.8937 35.8295 34.6229C35.9419 34.352 35.9997 34.0617 35.9997 33.7685C35.9997 33.4753 35.9419 33.1849 35.8295 32.9141C35.7171 32.6433 35.5523 32.3974 35.3447 32.1903L29.3463 26.1901C29.0395 25.8854 28.6508 25.6763 28.2275 25.5883C31.0928 21.4712 30.6999 15.7594 27.031 12.0897ZM25.1372 25.1383C22.0621 28.2134 17.0575 28.2134 13.9833 25.1383C10.91 22.0632 10.91 17.0595 13.9833 13.9844C17.0575 10.9101 22.0621 10.9101 25.1372 13.9844C28.2123 17.0595 28.2123 22.0632 25.1372 25.1383Z" fill="white"/>
</g>
<defs>
<clipPath id="clip0_104_4061">
<rect width="27" height="27" fill="white" transform="translate(9 9)"/>
</clipPath>
</defs>
</svg>
