<svg width="34" height="34" viewBox="0 0 34 34" fill="none" xmlns="http://www.w3.org/2000/svg">
<path d="M33.5195 14.3278L26.1226 21.5383L27.8694 31.7223C27.9068 31.9406 27.8824 32.1651 27.7989 32.3704C27.7154 32.5756 27.5761 32.7534 27.3968 32.8836C27.2176 33.0138 27.0055 33.0913 26.7845 33.1072C26.5635 33.1232 26.3424 33.077 26.1463 32.9739L17.0002 28.1657L7.85526 32.9727C7.65915 33.0758 7.4381 33.122 7.21711 33.106C6.99612 33.0901 6.784 33.0126 6.60474 32.8824C6.42548 32.7522 6.28622 32.5744 6.20271 32.3692C6.11921 32.164 6.09478 31.9395 6.1322 31.7211L7.87901 21.5371L0.480886 14.3278C0.322091 14.173 0.209777 13.977 0.156659 13.7617C0.10354 13.5465 0.111738 13.3207 0.180324 13.1098C0.248911 12.899 0.375147 12.7116 0.544742 12.5688C0.714338 12.426 0.92052 12.3336 1.13995 12.3019L11.3631 10.8175L15.935 1.55263C16.3352 0.74157 17.6652 0.74157 18.0654 1.55263L22.6373 10.8175L32.8604 12.3019C33.0794 12.3344 33.2849 12.4273 33.4539 12.5702C33.623 12.7131 33.7488 12.9003 33.8172 13.1108C33.8857 13.3212 33.8941 13.5466 33.8415 13.7616C33.7889 13.9766 33.6774 14.1727 33.5195 14.3278Z" fill="#072D75"/>
</svg>
